<svg width="32" height="32" viewBox="0 0 32 32" fill="none" xmlns="http://www.w3.org/2000/svg">
  <defs>
    <linearGradient id="faviconGradient" x1="0%" y1="0%" x2="100%" y2="100%">
      <stop offset="0%" style="stop-color:#ec4899;stop-opacity:1" />
      <stop offset="100%" style="stop-color:#be185d;stop-opacity:1" />
    </linearGradient>
  </defs>
  
  <circle cx="16" cy="16" r="16" fill="url(#faviconGradient)"/>
  
  <!-- Letter S -->
  <path d="M9.6 9.6c0-1.6 1.2-2.8 2.8-2.8s2.8 1.2 2.8 2.8v2c0 1.2-0.8 2-2 2h-0.8v1.6h0.8c1.2 0 2 0.8 2 2v2c0 1.6-1.2 2.8-2.8 2.8s-2.8-1.2-2.8-2.8v-2c0-1.2 0.8-2 2-2h0.8v-1.6h-0.8c-1.2 0-2-0.8-2-2V9.6z" fill="white"/>
  
  <!-- Letter T -->
  <path d="M17.6 8h4.8v1.6h-1.6v9.6c0 1.2-0.8 2-2 2s-2-0.8-2-2V9.6h-1.6V8z" fill="white"/>
</svg>

