<svg width="40" height="40" viewBox="0 0 40 40" fill="none" xmlns="http://www.w3.org/2000/svg">
  <!-- Background circle with gradient -->
  <defs>
      <linearGradient id="logoGradient" x1="0%" y1="0%" x2="100%" y2="100%">
        <stop offset="0%" style="stop-color:#6366f1;stop-opacity:1" />
        <stop offset="100%" style="stop-color:#3730a3;stop-opacity:1" />
      </linearGradient>
  </defs>
  
  <circle cx="20" cy="20" r="20" fill="url(#logoGradient)"/>
  
  <!-- Letter S -->
  <path d="M12 12c0-2 1.5-3.5 3.5-3.5s3.5 1.5 3.5 3.5v2.5c0 1.5-1 2.5-2.5 2.5h-1v2h1c1.5 0 2.5 1 2.5 2.5v2.5c0 2-1.5 3.5-3.5 3.5s-3.5-1.5-3.5-3.5v-2.5c0-1.5 1-2.5 2.5-2.5h1v-2h-1c-1.5 0-2.5-1-2.5-2.5V12z" fill="white" stroke="white" stroke-width="0.5"/>
  
  <!-- Letter T -->
  <path d="M22 10h6v2h-2v12c0 1.5-1 2.5-2.5 2.5s-2.5-1-2.5-2.5V12h-2V10z" fill="white" stroke="white" stroke-width="0.5"/>
</svg>
